<mxfile host="Electron" modified="2023-06-05T13:53:47.636Z" agent="Mozilla/5.0 (Macintosh; Intel Mac OS X 10_15_7) AppleWebKit/537.36 (KHTML, like Gecko) draw.io/21.2.8 Chrome/112.0.5615.165 Electron/24.2.0 Safari/537.36" etag="orku24DUas13v0dixSEa" version="21.2.8" type="device">
  <diagram name="Seite-1" id="JqhTSm-qYSKgSZzqwIYh">
    <mxGraphModel dx="1884" dy="-936" grid="1" gridSize="10" guides="1" tooltips="1" connect="1" arrows="1" fold="1" page="1" pageScale="1" pageWidth="827" pageHeight="1169" math="0" shadow="0">
      <root>
        <mxCell id="0" />
        <mxCell id="1" parent="0" />
        <mxCell id="NKWq0ZHmXzRdIuN5N653-2" value="" style="rounded=0;whiteSpace=wrap;html=1;strokeColor=#005B9C;strokeWidth=3;" vertex="1" parent="1">
          <mxGeometry x="-1265" y="1700" width="50" height="30" as="geometry" />
        </mxCell>
        <mxCell id="NKWq0ZHmXzRdIuN5N653-3" value="" style="rounded=0;whiteSpace=wrap;html=1;strokeColor=#005B9C;strokeWidth=3;" vertex="1" parent="1">
          <mxGeometry x="-1176" y="1724" width="30" height="50" as="geometry" />
        </mxCell>
        <mxCell id="NKWq0ZHmXzRdIuN5N653-4" style="edgeStyle=orthogonalEdgeStyle;rounded=0;orthogonalLoop=1;jettySize=auto;html=1;entryX=0;entryY=0.25;entryDx=0;entryDy=0;endArrow=open;endFill=0;strokeColor=#005B9C;strokeWidth=1;" edge="1" parent="1" source="NKWq0ZHmXzRdIuN5N653-2" target="NKWq0ZHmXzRdIuN5N653-3">
          <mxGeometry relative="1" as="geometry" />
        </mxCell>
        <mxCell id="NKWq0ZHmXzRdIuN5N653-5" value="" style="rounded=0;whiteSpace=wrap;html=1;strokeColor=#005B9C;strokeWidth=3;" vertex="1" parent="1">
          <mxGeometry x="-1240" y="1754" width="40" height="40" as="geometry" />
        </mxCell>
        <mxCell id="NKWq0ZHmXzRdIuN5N653-6" style="edgeStyle=orthogonalEdgeStyle;rounded=0;orthogonalLoop=1;jettySize=auto;html=1;entryX=0;entryY=0.5;entryDx=0;entryDy=0;exitX=0.166;exitY=0.997;exitDx=0;exitDy=0;exitPerimeter=0;endSize=5;startSize=2;jumpSize=1;endArrow=open;endFill=0;strokeColor=#005B9C;strokeWidth=1;" edge="1" parent="1" source="NKWq0ZHmXzRdIuN5N653-2" target="NKWq0ZHmXzRdIuN5N653-5">
          <mxGeometry relative="1" as="geometry">
            <Array as="points">
              <mxPoint x="-1260" y="1730" />
              <mxPoint x="-1260" y="1774" />
            </Array>
          </mxGeometry>
        </mxCell>
        <mxCell id="NKWq0ZHmXzRdIuN5N653-7" style="edgeStyle=orthogonalEdgeStyle;rounded=0;orthogonalLoop=1;jettySize=auto;html=1;entryX=1.018;entryY=0.195;entryDx=0;entryDy=0;endArrow=open;endFill=0;entryPerimeter=0;strokeColor=#005B9C;exitX=0;exitY=0.75;exitDx=0;exitDy=0;strokeWidth=1;" edge="1" parent="1" source="NKWq0ZHmXzRdIuN5N653-3" target="NKWq0ZHmXzRdIuN5N653-5">
          <mxGeometry relative="1" as="geometry">
            <mxPoint x="-1180" y="1761" as="sourcePoint" />
            <mxPoint x="-1130" y="1774" as="targetPoint" />
          </mxGeometry>
        </mxCell>
      </root>
    </mxGraphModel>
  </diagram>
</mxfile>
